<mxfile host="app.diagrams.net" agent="Mozilla/5.0 (Windows NT 10.0; Win64; x64) AppleWebKit/537.36 (KHTML, like Gecko) Chrome/132.0.0.0 Safari/537.36" version="26.0.13" pages="2">
  <diagram name="Простая диаграмма" id="V_mdQVb72bt3puaEmYpm">
    <mxGraphModel dx="1050" dy="574" grid="1" gridSize="10" guides="1" tooltips="1" connect="1" arrows="1" fold="1" page="1" pageScale="1" pageWidth="827" pageHeight="1169" math="0" shadow="0">
      <root>
        <mxCell id="0" />
        <mxCell id="1" parent="0" />
        <mxCell id="j5KNg22zZ7bBCVLOs8Td-1" value="" style="rounded=0;whiteSpace=wrap;html=1;" vertex="1" parent="1">
          <mxGeometry x="100" y="40" width="120" height="40" as="geometry" />
        </mxCell>
        <mxCell id="j5KNg22zZ7bBCVLOs8Td-2" value="&lt;u&gt;Соискатель&lt;/u&gt;" style="text;html=1;align=center;verticalAlign=middle;whiteSpace=wrap;rounded=0;" vertex="1" parent="1">
          <mxGeometry x="130" y="45" width="60" height="30" as="geometry" />
        </mxCell>
        <mxCell id="j5KNg22zZ7bBCVLOs8Td-3" value="" style="rounded=0;whiteSpace=wrap;html=1;" vertex="1" parent="1">
          <mxGeometry x="370" y="40" width="120" height="40" as="geometry" />
        </mxCell>
        <mxCell id="j5KNg22zZ7bBCVLOs8Td-4" value="&lt;u&gt;Страница поиска&lt;/u&gt;" style="text;html=1;align=center;verticalAlign=middle;whiteSpace=wrap;rounded=0;" vertex="1" parent="1">
          <mxGeometry x="380" y="45" width="100" height="30" as="geometry" />
        </mxCell>
        <mxCell id="j5KNg22zZ7bBCVLOs8Td-5" value="" style="rounded=0;whiteSpace=wrap;html=1;" vertex="1" parent="1">
          <mxGeometry x="640" y="40" width="120" height="40" as="geometry" />
        </mxCell>
        <mxCell id="j5KNg22zZ7bBCVLOs8Td-6" value="&lt;u&gt;Поисковая система&lt;/u&gt;" style="text;html=1;align=center;verticalAlign=middle;whiteSpace=wrap;rounded=0;" vertex="1" parent="1">
          <mxGeometry x="670" y="45" width="60" height="30" as="geometry" />
        </mxCell>
        <mxCell id="j5KNg22zZ7bBCVLOs8Td-7" value="" style="endArrow=none;dashed=1;html=1;rounded=0;entryX=0.5;entryY=1;entryDx=0;entryDy=0;" edge="1" parent="1" target="j5KNg22zZ7bBCVLOs8Td-1">
          <mxGeometry width="50" height="50" relative="1" as="geometry">
            <mxPoint x="160" y="480" as="sourcePoint" />
            <mxPoint x="320" y="190" as="targetPoint" />
          </mxGeometry>
        </mxCell>
        <mxCell id="j5KNg22zZ7bBCVLOs8Td-8" value="" style="endArrow=none;dashed=1;html=1;rounded=0;entryX=0.5;entryY=1;entryDx=0;entryDy=0;" edge="1" parent="1">
          <mxGeometry width="50" height="50" relative="1" as="geometry">
            <mxPoint x="429.5" y="480" as="sourcePoint" />
            <mxPoint x="429.5" y="80" as="targetPoint" />
          </mxGeometry>
        </mxCell>
        <mxCell id="j5KNg22zZ7bBCVLOs8Td-9" value="" style="endArrow=none;dashed=1;html=1;rounded=0;entryX=0.5;entryY=1;entryDx=0;entryDy=0;" edge="1" parent="1">
          <mxGeometry width="50" height="50" relative="1" as="geometry">
            <mxPoint x="699.5" y="480" as="sourcePoint" />
            <mxPoint x="699.5" y="80" as="targetPoint" />
          </mxGeometry>
        </mxCell>
        <mxCell id="j5KNg22zZ7bBCVLOs8Td-10" value="" style="endArrow=classic;html=1;rounded=0;" edge="1" parent="1">
          <mxGeometry width="50" height="50" relative="1" as="geometry">
            <mxPoint x="160" y="120" as="sourcePoint" />
            <mxPoint x="430" y="120" as="targetPoint" />
          </mxGeometry>
        </mxCell>
        <mxCell id="j5KNg22zZ7bBCVLOs8Td-13" value="Ввести критерии поиска" style="edgeLabel;html=1;align=center;verticalAlign=middle;resizable=0;points=[];" vertex="1" connectable="0" parent="j5KNg22zZ7bBCVLOs8Td-10">
          <mxGeometry x="-0.1348" y="-3" relative="1" as="geometry">
            <mxPoint x="13" y="-13" as="offset" />
          </mxGeometry>
        </mxCell>
        <mxCell id="j5KNg22zZ7bBCVLOs8Td-11" value="" style="endArrow=classic;html=1;rounded=0;" edge="1" parent="1">
          <mxGeometry width="50" height="50" relative="1" as="geometry">
            <mxPoint x="430" y="200" as="sourcePoint" />
            <mxPoint x="700" y="200" as="targetPoint" />
          </mxGeometry>
        </mxCell>
        <mxCell id="j5KNg22zZ7bBCVLOs8Td-14" value="Искать" style="edgeLabel;html=1;align=center;verticalAlign=middle;resizable=0;points=[];" vertex="1" connectable="0" parent="j5KNg22zZ7bBCVLOs8Td-11">
          <mxGeometry x="-0.0681" y="-1" relative="1" as="geometry">
            <mxPoint x="4" y="-11" as="offset" />
          </mxGeometry>
        </mxCell>
        <mxCell id="j5KNg22zZ7bBCVLOs8Td-12" value="" style="endArrow=classic;html=1;rounded=0;dashed=1;" edge="1" parent="1">
          <mxGeometry width="50" height="50" relative="1" as="geometry">
            <mxPoint x="700" y="280" as="sourcePoint" />
            <mxPoint x="430" y="280" as="targetPoint" />
          </mxGeometry>
        </mxCell>
        <mxCell id="j5KNg22zZ7bBCVLOs8Td-15" value="Искать результаты поиска" style="edgeLabel;html=1;align=center;verticalAlign=middle;resizable=0;points=[];" vertex="1" connectable="0" parent="j5KNg22zZ7bBCVLOs8Td-12">
          <mxGeometry x="0.083" y="1" relative="1" as="geometry">
            <mxPoint x="6" y="-11" as="offset" />
          </mxGeometry>
        </mxCell>
      </root>
    </mxGraphModel>
  </diagram>
  <diagram id="iogM2vqVbUJF9Zq4kl13" name="Детализированная диаграмма">
    <mxGraphModel dx="5048" dy="2296" grid="1" gridSize="10" guides="1" tooltips="1" connect="1" arrows="1" fold="1" page="1" pageScale="1" pageWidth="690" pageHeight="980" math="0" shadow="0">
      <root>
        <mxCell id="0" />
        <mxCell id="1" parent="0" />
        <mxCell id="pXAC_tEPygW8O6K2Z8fC-1" value="" style="rounded=0;whiteSpace=wrap;html=1;" vertex="1" parent="1">
          <mxGeometry x="70" y="30" width="120" height="40" as="geometry" />
        </mxCell>
        <mxCell id="pXAC_tEPygW8O6K2Z8fC-2" value="&lt;u&gt;Соискатель&lt;/u&gt;" style="text;html=1;align=center;verticalAlign=middle;whiteSpace=wrap;rounded=0;" vertex="1" parent="1">
          <mxGeometry x="100" y="35" width="60" height="30" as="geometry" />
        </mxCell>
        <mxCell id="pXAC_tEPygW8O6K2Z8fC-3" value="" style="rounded=0;whiteSpace=wrap;html=1;" vertex="1" parent="1">
          <mxGeometry x="250" y="30" width="120" height="40" as="geometry" />
        </mxCell>
        <mxCell id="pXAC_tEPygW8O6K2Z8fC-4" value="&lt;u&gt;Соискатель&lt;/u&gt;" style="text;html=1;align=center;verticalAlign=middle;whiteSpace=wrap;rounded=0;" vertex="1" parent="1">
          <mxGeometry x="280" y="35" width="60" height="30" as="geometry" />
        </mxCell>
        <mxCell id="pXAC_tEPygW8O6K2Z8fC-5" value="" style="rounded=0;whiteSpace=wrap;html=1;" vertex="1" parent="1">
          <mxGeometry x="440" y="30" width="120" height="40" as="geometry" />
        </mxCell>
        <mxCell id="pXAC_tEPygW8O6K2Z8fC-6" value="&lt;u&gt;Соискатель&lt;/u&gt;" style="text;html=1;align=center;verticalAlign=middle;whiteSpace=wrap;rounded=0;" vertex="1" parent="1">
          <mxGeometry x="470" y="35" width="60" height="30" as="geometry" />
        </mxCell>
        <mxCell id="pXAC_tEPygW8O6K2Z8fC-7" value="" style="rounded=0;whiteSpace=wrap;html=1;" vertex="1" parent="1">
          <mxGeometry x="620" y="30" width="120" height="40" as="geometry" />
        </mxCell>
        <mxCell id="pXAC_tEPygW8O6K2Z8fC-8" value="&lt;u&gt;Соискатель&lt;/u&gt;" style="text;html=1;align=center;verticalAlign=middle;whiteSpace=wrap;rounded=0;" vertex="1" parent="1">
          <mxGeometry x="650" y="35" width="60" height="30" as="geometry" />
        </mxCell>
      </root>
    </mxGraphModel>
  </diagram>
</mxfile>
